<svg width="68" height="68" viewBox="0 0 68 68" fill="none" xmlns="http://www.w3.org/2000/svg">
<g filter="url(#filter0_d_4632_11161)">
<rect x="4" width="60" height="60" rx="8" fill="#6366F1" fill-opacity="0.08" shape-rendering="crispEdges"/>
<g clip-path="url(#clip0_4632_11161)">
<path d="M33.9452 44C33.7775 44 33.6101 43.9615 33.456 43.8846C33.3281 43.8206 30.2865 42.2784 27.1042 38.8192C25.2388 36.7919 23.7067 34.5186 22.5502 32.0625C21.1056 28.9949 20.2484 25.6363 20.0016 22.0801C19.9816 21.79 20.0779 21.504 20.2691 21.285C20.4605 21.0661 20.7309 20.9321 21.0213 20.9131C23.0244 20.7815 24.5937 19.1039 24.5937 17.0938C24.5937 16.4896 25.0833 16 25.6874 16H42.3124C42.9163 16 43.4062 16.4896 43.4062 17.0938C43.4062 19.1027 44.9744 20.7802 46.9765 20.9131C47.2713 20.9326 47.5455 21.0706 47.737 21.2955C47.9286 21.5204 48.0209 21.8133 47.9931 22.1075C47.619 26.0561 46.5287 29.7492 44.7522 33.0845C44.4681 33.6177 43.8057 33.8196 43.2727 33.5357C42.7395 33.2518 42.5376 32.5893 42.8215 32.0561C44.3096 29.2624 45.2767 26.1905 45.702 22.9116C43.4624 22.3211 41.7418 20.469 41.3189 18.1875H26.681C26.2563 20.4788 24.5232 22.3367 22.2697 22.9188C22.8445 28.4367 24.9893 33.2612 28.6529 37.2717C30.846 39.6722 32.9961 41.0885 33.939 41.6491C34.9708 41.0215 37.4662 39.3349 39.8955 36.4106C40.2815 35.9458 40.9709 35.8821 41.4357 36.2681C41.9003 36.6541 41.9642 37.3437 41.5782 37.8083C38.1209 41.9702 34.5921 43.8039 34.4434 43.8799C34.287 43.9601 34.1161 44 33.9452 44ZM34.7912 38.0809C35.1554 37.5988 35.0599 36.9131 34.5782 36.5488C33.6325 35.8343 32.7376 35.024 31.9182 34.1409C29.5356 31.5723 27.9191 28.5544 27.1072 25.1617C27.5447 24.8237 27.9563 24.4503 28.3364 24.0461C28.9665 23.3755 29.5047 22.6268 29.9357 21.8202C30.2203 21.2874 30.0191 20.6247 29.4863 20.34C28.9535 20.0554 28.2909 20.2567 28.0063 20.7894C27.666 21.426 27.2409 22.0175 26.7427 22.5478C26.3035 23.015 25.8113 23.4296 25.2803 23.7806C24.9077 24.0267 24.7221 24.4746 24.8116 24.9124C25.6443 28.9842 27.4955 32.5898 30.3145 35.6285C31.2207 36.6054 32.2115 37.5024 33.2593 38.2941C33.4567 38.4432 33.6883 38.5152 33.9179 38.5152C34.249 38.5152 34.5763 38.3655 34.7912 38.0809Z" fill="url(#paint0_linear_4632_11161)"/>
</g>
</g>
<defs>
<filter id="filter0_d_4632_11161" x="0" y="0" width="68" height="68" filterUnits="userSpaceOnUse" color-interpolation-filters="sRGB">
<feFlood flood-opacity="0" result="BackgroundImageFix"/>
<feColorMatrix in="SourceAlpha" type="matrix" values="0 0 0 0 0 0 0 0 0 0 0 0 0 0 0 0 0 0 127 0" result="hardAlpha"/>
<feOffset dy="4"/>
<feGaussianBlur stdDeviation="2"/>
<feComposite in2="hardAlpha" operator="out"/>
<feColorMatrix type="matrix" values="0 0 0 0 0 0 0 0 0 0 0 0 0 0 0 0 0 0 0.25 0"/>
<feBlend mode="normal" in2="BackgroundImageFix" result="effect1_dropShadow_4632_11161"/>
<feBlend mode="normal" in="SourceGraphic" in2="effect1_dropShadow_4632_11161" result="shape"/>
</filter>
<linearGradient id="paint0_linear_4632_11161" x1="19.999" y1="30.067" x2="47.9979" y2="30.067" gradientUnits="userSpaceOnUse">
<stop stop-color="#6366F1"/>
<stop offset="0.5" stop-color="#8B5CF6"/>
<stop offset="1" stop-color="#D946EF"/>
</linearGradient>
<clipPath id="clip0_4632_11161">
<rect width="28" height="28" fill="white" transform="translate(20 16)"/>
</clipPath>
</defs>
</svg>
